<?xml version="1.0" encoding="UTF-8"?>
<svg id="Motion_tracker" data-name="Motion tracker" xmlns="http://www.w3.org/2000/svg" viewBox="0 0 1174.65 1327.07">
  <defs>
    <style>
      .cls-1 {
        letter-spacing: -.01em;
      }

      .cls-2 {
        letter-spacing: -.02em;
      }

      .cls-3 {
        font-size: 20.7px;
      }

      .cls-3, .cls-4 {
        font-family: Inter-Regular, Inter;
        font-variation-settings: 'wght' 400, 'slnt' 0;
      }

      .cls-3, .cls-5 {
        fill: #e8e8e8;
      }

      .cls-6 {
        stroke-width: 7px;
      }

      .cls-6, .cls-7, .cls-8, .cls-9, .cls-10, .cls-11, .cls-12 {
        fill: none;
        stroke-miterlimit: 10;
      }

      .cls-6, .cls-8, .cls-9, .cls-10, .cls-11, .cls-12 {
        stroke: #e8e8e8;
      }

      .cls-7 {
        stroke: #e57e1f;
      }

      .cls-7, .cls-8, .cls-10, .cls-11, .cls-12 {
        stroke-width: 3px;
      }

      .cls-13 {
        fill: #539453;
      }

      .cls-13, .cls-14, .cls-15, .cls-16, .cls-5 {
        stroke-width: 0px;
      }

      .cls-17, .cls-9 {
        opacity: .58;
      }

      .cls-8 {
        stroke-dasharray: 0 0 14.7 14.7;
      }

      .cls-9 {
        stroke-width: 2px;
      }

      .cls-15 {
        fill: #271e1f;
      }

      .cls-4 {
        fill: #e57e1f;
        font-size: 26.76px;
      }

      .cls-16 {
        fill: #61a361;
      }

      .cls-10 {
        stroke-dasharray: 0 0 15.04 15.04;
      }

      .cls-12 {
        stroke-dasharray: 0 0 15.44 15.44;
      }
    </style>
  </defs>
  <ellipse class="cls-15" cx="591.81" cy="875.92" rx="129.48" ry="60.46"/>
  <rect class="cls-15" x="149.37" width="875.92" height="875.92"/>
  <rect class="cls-14" x="204.22" y="54.85" width="766.21" height="766.21"/>
  <rect class="cls-13" x="247.3" y="96.77" width="682.37" height="682.37" rx="44.78" ry="44.78"/>
  <g>
    <circle class="cls-16" cx="587.33" cy="618.04" r="88.94"/>
    <g>
      <circle class="cls-13" cx="588.48" cy="618.16" r="55.14"/>
      <rect class="cls-13" x="626.17" y="546.89" width="21.4" height="45.34" transform="translate(589.28 -283.52) rotate(45)"/>
      <rect class="cls-13" x="529.2" y="644.07" width="21.4" height="45.34" transform="translate(629.59 -186.48) rotate(45)"/>
      <rect class="cls-13" x="626.26" y="643.88" width="21.4" height="45.34" transform="translate(1558.68 687.46) rotate(135)"/>
      <rect class="cls-13" x="529.09" y="546.91" width="21.4" height="45.34" transform="translate(1324.22 590.64) rotate(135)"/>
    </g>
  </g>
  <g>
    <path class="cls-6" d="m588.48,158.47s-187.1-3.51-309.72,96.3l309.72,384.98,309.72-384.98c-122.62-99.81-309.72-96.3-309.72-96.3Z"/>
    <g class="cls-17">
      <g>
        <path class="cls-11" d="m828.59,345.95c-1.94-1.58-3.91-3.13-5.89-4.64"/>
        <path class="cls-10" d="m810.48,332.53c-94.2-63.57-221.79-61.17-221.79-61.17,0,0-133.27-2.5-227.96,65.47"/>
        <path class="cls-11" d="m354.69,341.31c-1.98,1.52-3.95,3.06-5.89,4.64"/>
      </g>
    </g>
    <g class="cls-17">
      <g>
        <path class="cls-11" d="m757.51,429.06c-1.94-1.58-3.92-3.12-5.92-4.6"/>
        <path class="cls-8" d="m739.44,416.18c-64.41-40.2-147.63-38.64-147.63-38.64,0,0-88.66-1.66-153.79,42.66"/>
        <path class="cls-11" d="m432.03,424.45c-2,1.49-3.98,3.02-5.92,4.6"/>
      </g>
    </g>
    <g class="cls-17">
      <g>
        <path class="cls-11" d="m678.51,529.1c-1.95-1.59-3.96-3.08-6.01-4.49"/>
        <path class="cls-12" d="m659.15,516.9c-31.73-15.42-67.33-14.75-67.33-14.75,0,0-40.94-.77-74.16,18.37"/>
        <path class="cls-11" d="m511.12,524.62c-2.05,1.41-4.06,2.9-6.01,4.49"/>
      </g>
    </g>
    <line class="cls-9" x1="588.48" y1="158.47" x2="588.48" y2="639.75"/>
    <line class="cls-9" x1="750.7" y1="186.64" x2="588.48" y2="639.75"/>
    <line class="cls-9" x1="426.11" y1="186.64" x2="588.34" y2="639.75"/>
  </g>
  <text class="cls-3" transform="translate(294.21 750.05)"><tspan x="0" y="0">0.38</tspan><tspan class="cls-1" x="44.57" y="0">7</tspan><tspan x="56.1" y="0">854</tspan></text>
  <polygon class="cls-5" points="738.07 112.92 603.01 112.92 612.23 96.77 747.3 96.77 738.07 112.92"/>
  <text class="cls-4" transform="translate(406.29 808.3) scale(1.36 1)"><tspan x="0" y="0">7</tspan><tspan class="cls-2" x="15.28" y="0">-</tspan><tspan x="26.99" y="0">72</tspan></text>
  <text class="cls-4" transform="translate(624.67 808.3) scale(1.36 1)"><tspan x="0" y="0">47-CLN</tspan></text>
  <g>
    <line class="cls-7" x1="209.48" y1="709.95" x2="241.52" y2="709.95"/>
    <line class="cls-7" x1="209.48" y1="632.24" x2="241.52" y2="632.24"/>
    <line class="cls-7" x1="209.48" y1="554.53" x2="241.52" y2="554.53"/>
    <line class="cls-7" x1="209.48" y1="476.82" x2="241.52" y2="476.82"/>
    <line class="cls-7" x1="209.48" y1="399.1" x2="241.52" y2="399.1"/>
    <line class="cls-7" x1="209.48" y1="321.39" x2="241.52" y2="321.39"/>
    <line class="cls-7" x1="209.48" y1="243.68" x2="241.52" y2="243.68"/>
    <line class="cls-7" x1="209.48" y1="165.97" x2="241.52" y2="165.97"/>
  </g>
  <g>
    <line class="cls-7" x1="933.55" y1="709.95" x2="965.59" y2="709.95"/>
    <line class="cls-7" x1="933.55" y1="632.24" x2="965.59" y2="632.24"/>
    <line class="cls-7" x1="933.55" y1="554.53" x2="965.59" y2="554.53"/>
    <line class="cls-7" x1="933.55" y1="476.82" x2="965.59" y2="476.82"/>
    <line class="cls-7" x1="933.55" y1="399.1" x2="965.59" y2="399.1"/>
    <line class="cls-7" x1="933.55" y1="321.39" x2="965.59" y2="321.39"/>
    <line class="cls-7" x1="933.55" y1="243.68" x2="965.59" y2="243.68"/>
    <line class="cls-7" x1="933.55" y1="165.97" x2="965.59" y2="165.97"/>
  </g>
  <text class="cls-4" transform="translate(295.44 87.68) scale(1.36 1)"><tspan x="0" y="0">-CN</tspan></text>
  <rect class="cls-15" x="515.84" y="866.33" width="151.94" height="460.73"/>
  <g>
    <ellipse class="cls-15" cx="528.91" cy="960.1" rx="23.57" ry="45.08"/>
    <ellipse class="cls-15" cx="654.71" cy="960.1" rx="23.57" ry="45.08"/>
  </g>
  <g>
    <ellipse class="cls-15" cx="528.91" cy="1029.63" rx="23.57" ry="45.08"/>
    <ellipse class="cls-15" cx="654.71" cy="1029.63" rx="23.57" ry="45.08"/>
  </g>
  <g>
    <ellipse class="cls-15" cx="528.91" cy="1092.52" rx="23.57" ry="45.08"/>
    <ellipse class="cls-15" cx="654.71" cy="1092.52" rx="23.57" ry="45.08"/>
  </g>
  <g>
    <ellipse class="cls-15" cx="528.91" cy="1162.05" rx="23.57" ry="45.08"/>
    <ellipse class="cls-15" cx="654.71" cy="1162.05" rx="23.57" ry="45.08"/>
  </g>
  <g>
    <ellipse class="cls-15" cx="528.91" cy="1231.4" rx="23.57" ry="45.08"/>
    <ellipse class="cls-15" cx="654.71" cy="1231.4" rx="23.57" ry="45.08"/>
  </g>
  <g>
    <ellipse class="cls-15" cx="528.91" cy="1300.92" rx="23.57" ry="45.08"/>
    <ellipse class="cls-15" cx="654.71" cy="1300.92" rx="23.57" ry="45.08"/>
  </g>
</svg>